<mxfile host="www.draw.io" modified="2023-12-21T12:23:52.437Z" agent="Mozilla/5.0 (Windows NT 10.0; Win64; x64) AppleWebKit/537.36 (KHTML, like Gecko) Chrome/120.0.0.0 Safari/537.36" etag="kMvJShZKA75tH7B9a_ar" version="22.1.11" type="device">
  <diagram name="Page-1" id="9QZ0VoccwyQ3dtp1MKFt">
    <mxGraphModel dx="2467" dy="649" grid="1" gridSize="10" guides="1" tooltips="1" connect="1" arrows="1" fold="1" page="1" pageScale="1" pageWidth="827" pageHeight="1169" math="0" shadow="0">
      <root>
        <mxCell id="0" />
        <mxCell id="1" parent="0" />
        <mxCell id="kinTLFYI9w25P7nkgjE1-1" value="Doctor" style="shape=umlActor;verticalLabelPosition=bottom;verticalAlign=top;html=1;outlineConnect=0;fontStyle=1" parent="1" vertex="1">
          <mxGeometry x="50" y="50" width="30" height="60" as="geometry" />
        </mxCell>
        <mxCell id="kinTLFYI9w25P7nkgjE1-2" value="" style="endArrow=none;dashed=1;html=1;strokeWidth=2;rounded=0;fontStyle=1;entryX=0.5;entryY=0.5;entryDx=0;entryDy=0;entryPerimeter=0;" parent="1" source="kinTLFYI9w25P7nkgjE1-9" target="kinTLFYI9w25P7nkgjE1-1" edge="1">
          <mxGeometry width="50" height="50" relative="1" as="geometry">
            <mxPoint x="65" y="706.8421052631579" as="sourcePoint" />
            <mxPoint x="64" y="150" as="targetPoint" />
          </mxGeometry>
        </mxCell>
        <mxCell id="kinTLFYI9w25P7nkgjE1-3" value="Test Record" style="rounded=0;whiteSpace=wrap;html=1;fontStyle=1" parent="1" vertex="1">
          <mxGeometry x="340" y="60" width="90" height="40" as="geometry" />
        </mxCell>
        <mxCell id="kinTLFYI9w25P7nkgjE1-4" value="Patient" style="rounded=0;whiteSpace=wrap;html=1;fontStyle=1" parent="1" vertex="1">
          <mxGeometry x="580" y="60" width="90" height="40" as="geometry" />
        </mxCell>
        <mxCell id="kinTLFYI9w25P7nkgjE1-5" value="Laboratory" style="rounded=0;whiteSpace=wrap;html=1;fontStyle=1" parent="1" vertex="1">
          <mxGeometry x="880" y="60" width="100" height="40" as="geometry" />
        </mxCell>
        <mxCell id="kinTLFYI9w25P7nkgjE1-6" value="" style="endArrow=none;dashed=1;html=1;strokeWidth=2;rounded=0;entryX=0.5;entryY=1;entryDx=0;entryDy=0;fontStyle=1" parent="1" source="kinTLFYI9w25P7nkgjE1-20" target="kinTLFYI9w25P7nkgjE1-3" edge="1">
          <mxGeometry width="50" height="50" relative="1" as="geometry">
            <mxPoint x="385" y="770" as="sourcePoint" />
            <mxPoint x="245" y="160" as="targetPoint" />
          </mxGeometry>
        </mxCell>
        <mxCell id="kinTLFYI9w25P7nkgjE1-7" value="" style="endArrow=none;dashed=1;html=1;strokeWidth=2;rounded=0;entryX=0.5;entryY=1;entryDx=0;entryDy=0;fontStyle=1" parent="1" source="kinTLFYI9w25P7nkgjE1-26" target="kinTLFYI9w25P7nkgjE1-4" edge="1">
          <mxGeometry width="50" height="50" relative="1" as="geometry">
            <mxPoint x="625" y="860" as="sourcePoint" />
            <mxPoint x="415" y="120" as="targetPoint" />
          </mxGeometry>
        </mxCell>
        <mxCell id="kinTLFYI9w25P7nkgjE1-8" value="" style="endArrow=none;dashed=1;html=1;strokeWidth=2;rounded=0;fontStyle=1" parent="1" target="kinTLFYI9w25P7nkgjE1-9" edge="1">
          <mxGeometry width="50" height="50" relative="1" as="geometry">
            <mxPoint x="65" y="400" as="sourcePoint" />
            <mxPoint x="65" y="200" as="targetPoint" />
          </mxGeometry>
        </mxCell>
        <mxCell id="kinTLFYI9w25P7nkgjE1-9" value="" style="html=1;points=[[0,0,0,0,5],[0,1,0,0,-5],[1,0,0,0,5],[1,1,0,0,-5]];perimeter=orthogonalPerimeter;outlineConnect=0;targetShapes=umlLifeline;portConstraint=eastwest;newEdgeStyle={&quot;curved&quot;:0,&quot;rounded&quot;:0};fontStyle=1" parent="1" vertex="1">
          <mxGeometry x="60" y="220" width="10" height="90" as="geometry" />
        </mxCell>
        <mxCell id="kinTLFYI9w25P7nkgjE1-10" value="" style="html=1;points=[[0,0,0,0,5],[0,1,0,0,-5],[1,0,0,0,5],[1,1,0,0,-5]];perimeter=orthogonalPerimeter;outlineConnect=0;targetShapes=umlLifeline;portConstraint=eastwest;newEdgeStyle={&quot;curved&quot;:0,&quot;rounded&quot;:0};fontStyle=1" parent="1" vertex="1">
          <mxGeometry x="380" y="220" width="10" height="90" as="geometry" />
        </mxCell>
        <mxCell id="kinTLFYI9w25P7nkgjE1-11" value="" style="endArrow=none;dashed=1;html=1;strokeWidth=2;rounded=0;entryX=0.5;entryY=1;entryDx=0;entryDy=0;fontStyle=1" parent="1" source="kinTLFYI9w25P7nkgjE1-12" target="kinTLFYI9w25P7nkgjE1-5" edge="1">
          <mxGeometry width="50" height="50" relative="1" as="geometry">
            <mxPoint x="930" y="490" as="sourcePoint" />
            <mxPoint x="765" y="-60" as="targetPoint" />
          </mxGeometry>
        </mxCell>
        <mxCell id="kinTLFYI9w25P7nkgjE1-12" value="" style="html=1;points=[[0,0,0,0,5],[0,1,0,0,-5],[1,0,0,0,5],[1,1,0,0,-5]];perimeter=orthogonalPerimeter;outlineConnect=0;targetShapes=umlLifeline;portConstraint=eastwest;newEdgeStyle={&quot;curved&quot;:0,&quot;rounded&quot;:0};fontStyle=1" parent="1" vertex="1">
          <mxGeometry x="926.6" y="1305" width="10" height="160" as="geometry" />
        </mxCell>
        <mxCell id="kinTLFYI9w25P7nkgjE1-13" style="edgeStyle=orthogonalEdgeStyle;rounded=0;orthogonalLoop=1;jettySize=auto;html=1;curved=0;exitX=1;exitY=0;exitDx=0;exitDy=5;exitPerimeter=0;entryX=0;entryY=0;entryDx=0;entryDy=5;entryPerimeter=0;fontStyle=1" parent="1" source="kinTLFYI9w25P7nkgjE1-9" target="kinTLFYI9w25P7nkgjE1-10" edge="1">
          <mxGeometry relative="1" as="geometry" />
        </mxCell>
        <mxCell id="kinTLFYI9w25P7nkgjE1-14" value="1. viewTestResult(testId)" style="text;html=1;align=center;verticalAlign=middle;resizable=0;points=[];autosize=1;strokeColor=none;fillColor=none;fontStyle=1" parent="1" vertex="1">
          <mxGeometry x="157" y="190" width="160" height="30" as="geometry" />
        </mxCell>
        <mxCell id="kinTLFYI9w25P7nkgjE1-15" value="" style="endArrow=none;dashed=1;html=1;dashPattern=1 3;strokeWidth=2;rounded=0;entryX=0;entryY=1;entryDx=0;entryDy=-5;entryPerimeter=0;startArrow=classicThin;startFill=1;" parent="1" source="kinTLFYI9w25P7nkgjE1-9" edge="1">
          <mxGeometry width="50" height="50" relative="1" as="geometry">
            <mxPoint x="160" y="275" as="sourcePoint" />
            <mxPoint x="380" y="275" as="targetPoint" />
          </mxGeometry>
        </mxCell>
        <mxCell id="kinTLFYI9w25P7nkgjE1-16" value="2 .receiveResults(ReportId)" style="text;html=1;align=center;verticalAlign=middle;resizable=0;points=[];autosize=1;strokeColor=none;fillColor=none;fontStyle=1" parent="1" vertex="1">
          <mxGeometry x="160" y="250" width="180" height="30" as="geometry" />
        </mxCell>
        <mxCell id="kinTLFYI9w25P7nkgjE1-17" value="" style="endArrow=none;dashed=1;html=1;strokeWidth=2;rounded=0;fontStyle=1" parent="1" source="kinTLFYI9w25P7nkgjE1-119" edge="1">
          <mxGeometry width="50" height="50" relative="1" as="geometry">
            <mxPoint x="66" y="1082.5" as="sourcePoint" />
            <mxPoint x="67" y="732.5" as="targetPoint" />
          </mxGeometry>
        </mxCell>
        <mxCell id="kinTLFYI9w25P7nkgjE1-18" value="" style="html=1;points=[[0,0,0,0,5],[0,1,0,0,-5],[1,0,0,0,5],[1,1,0,0,-5]];perimeter=orthogonalPerimeter;outlineConnect=0;targetShapes=umlLifeline;portConstraint=eastwest;newEdgeStyle={&quot;curved&quot;:0,&quot;rounded&quot;:0};fontStyle=1" parent="1" vertex="1">
          <mxGeometry x="60" y="350" width="10" height="470" as="geometry" />
        </mxCell>
        <mxCell id="kinTLFYI9w25P7nkgjE1-19" value="" style="endArrow=none;dashed=1;html=1;strokeWidth=2;rounded=0;entryX=0.5;entryY=1;entryDx=0;entryDy=0;fontStyle=1" parent="1" target="kinTLFYI9w25P7nkgjE1-20" edge="1">
          <mxGeometry width="50" height="50" relative="1" as="geometry">
            <mxPoint x="385" y="419.3103448275862" as="sourcePoint" />
            <mxPoint x="385" y="160" as="targetPoint" />
          </mxGeometry>
        </mxCell>
        <mxCell id="kinTLFYI9w25P7nkgjE1-20" value="" style="html=1;points=[[0,0,0,0,5],[0,1,0,0,-5],[1,0,0,0,5],[1,1,0,0,-5]];perimeter=orthogonalPerimeter;outlineConnect=0;targetShapes=umlLifeline;portConstraint=eastwest;newEdgeStyle={&quot;curved&quot;:0,&quot;rounded&quot;:0};fontStyle=1" parent="1" vertex="1">
          <mxGeometry x="380" y="330" width="10" height="90" as="geometry" />
        </mxCell>
        <mxCell id="kinTLFYI9w25P7nkgjE1-22" value="" style="endArrow=none;dashed=1;html=1;dashPattern=1 3;strokeWidth=2;rounded=0;entryX=0;entryY=1;entryDx=0;entryDy=-5;entryPerimeter=0;startArrow=classicThin;startFill=1;" parent="1" edge="1">
          <mxGeometry width="50" height="50" relative="1" as="geometry">
            <mxPoint x="70" y="380" as="sourcePoint" />
            <mxPoint x="380" y="380" as="targetPoint" />
          </mxGeometry>
        </mxCell>
        <mxCell id="kinTLFYI9w25P7nkgjE1-24" value="3. returneEmpty()" style="text;html=1;align=center;verticalAlign=middle;resizable=0;points=[];autosize=1;strokeColor=none;fillColor=none;fontStyle=1" parent="1" vertex="1">
          <mxGeometry x="180" y="350" width="120" height="30" as="geometry" />
        </mxCell>
        <mxCell id="kinTLFYI9w25P7nkgjE1-25" style="edgeStyle=orthogonalEdgeStyle;rounded=0;orthogonalLoop=1;jettySize=auto;html=1;curved=0;" parent="1" target="HCBshFpPwsW8tZtwfmP2-17" edge="1">
          <mxGeometry relative="1" as="geometry">
            <mxPoint x="72" y="542.5" as="sourcePoint" />
            <mxPoint x="372" y="552.5" as="targetPoint" />
            <Array as="points">
              <mxPoint x="142" y="542.5" />
              <mxPoint x="142" y="542.5" />
            </Array>
          </mxGeometry>
        </mxCell>
        <mxCell id="kinTLFYI9w25P7nkgjE1-26" value="" style="html=1;points=[[0,0,0,0,5],[0,1,0,0,-5],[1,0,0,0,5],[1,1,0,0,-5]];perimeter=orthogonalPerimeter;outlineConnect=0;targetShapes=umlLifeline;portConstraint=eastwest;newEdgeStyle={&quot;curved&quot;:0,&quot;rounded&quot;:0};fontStyle=1" parent="1" vertex="1">
          <mxGeometry x="622" y="557.5" width="10" height="180" as="geometry" />
        </mxCell>
        <mxCell id="kinTLFYI9w25P7nkgjE1-27" value="4. orderDiagnosticTest(doctorId, patientId, Content)" style="text;html=1;align=center;verticalAlign=middle;resizable=0;points=[];autosize=1;strokeColor=none;fillColor=none;fontStyle=1" parent="1" vertex="1">
          <mxGeometry x="70" y="510" width="310" height="30" as="geometry" />
        </mxCell>
        <mxCell id="kinTLFYI9w25P7nkgjE1-30" style="edgeStyle=orthogonalEdgeStyle;rounded=0;orthogonalLoop=1;jettySize=auto;html=1;curved=0;" parent="1" target="HCBshFpPwsW8tZtwfmP2-20" edge="1">
          <mxGeometry relative="1" as="geometry">
            <mxPoint x="72" y="920" as="sourcePoint" />
            <mxPoint x="372" y="920" as="targetPoint" />
            <Array as="points">
              <mxPoint x="282" y="920" />
              <mxPoint x="282" y="920" />
            </Array>
          </mxGeometry>
        </mxCell>
        <mxCell id="kinTLFYI9w25P7nkgjE1-31" value="10. orderMedicalProcedure(doctorId, &lt;br&gt;patientId, Content)" style="text;html=1;align=center;verticalAlign=middle;resizable=0;points=[];autosize=1;strokeColor=none;fillColor=none;fontStyle=1" parent="1" vertex="1">
          <mxGeometry x="112" y="885" width="230" height="40" as="geometry" />
        </mxCell>
        <mxCell id="kinTLFYI9w25P7nkgjE1-32" value="" style="endArrow=none;dashed=1;html=1;dashPattern=1 3;strokeWidth=2;rounded=0;startArrow=openAsync;startFill=0;" parent="1" edge="1">
          <mxGeometry width="50" height="50" relative="1" as="geometry">
            <mxPoint x="392" y="1067.73" as="sourcePoint" />
            <mxPoint x="632" y="1067.73" as="targetPoint" />
          </mxGeometry>
        </mxCell>
        <mxCell id="kinTLFYI9w25P7nkgjE1-33" value="12. returnProcedureReport(precdureId,&lt;br&gt;patientId)" style="text;html=1;align=center;verticalAlign=middle;resizable=0;points=[];autosize=1;strokeColor=none;fillColor=none;fontStyle=1" parent="1" vertex="1">
          <mxGeometry x="382" y="1020" width="250" height="40" as="geometry" />
        </mxCell>
        <mxCell id="kinTLFYI9w25P7nkgjE1-42" value="" style="html=1;points=[[0,0,0,0,5],[0,1,0,0,-5],[1,0,0,0,5],[1,1,0,0,-5]];perimeter=orthogonalPerimeter;outlineConnect=0;targetShapes=umlLifeline;portConstraint=eastwest;newEdgeStyle={&quot;curved&quot;:0,&quot;rounded&quot;:0};fontStyle=1" parent="1" vertex="1">
          <mxGeometry x="61.6" y="1270" width="10" height="280" as="geometry" />
        </mxCell>
        <mxCell id="kinTLFYI9w25P7nkgjE1-44" value="16. orderLabWork(doctorId, LabId, Content)" style="text;html=1;align=center;verticalAlign=middle;resizable=0;points=[];autosize=1;strokeColor=none;fillColor=none;fontStyle=1" parent="1" vertex="1">
          <mxGeometry x="92" y="1280" width="270" height="30" as="geometry" />
        </mxCell>
        <mxCell id="kinTLFYI9w25P7nkgjE1-49" value="" style="endArrow=none;dashed=1;html=1;dashPattern=1 3;strokeWidth=2;rounded=0;startArrow=openAsync;startFill=0;" parent="1" edge="1">
          <mxGeometry width="50" height="50" relative="1" as="geometry">
            <mxPoint x="391.6" y="1438.9999999999998" as="sourcePoint" />
            <mxPoint x="926.6" y="1439" as="targetPoint" />
          </mxGeometry>
        </mxCell>
        <mxCell id="kinTLFYI9w25P7nkgjE1-50" value="18. returnTestResults(labId, resultsInfo, workId)" style="text;html=1;align=center;verticalAlign=middle;resizable=0;points=[];autosize=1;strokeColor=none;fillColor=none;fontStyle=1" parent="1" vertex="1">
          <mxGeometry x="521.6" y="1409" width="290" height="30" as="geometry" />
        </mxCell>
        <mxCell id="kinTLFYI9w25P7nkgjE1-103" value="" style="endArrow=none;dashed=1;html=1;strokeWidth=2;rounded=0;fontStyle=1;" parent="1" source="kinTLFYI9w25P7nkgjE1-104" target="kinTLFYI9w25P7nkgjE1-20" edge="1">
          <mxGeometry width="50" height="50" relative="1" as="geometry">
            <mxPoint x="384.5" y="692.5" as="sourcePoint" />
            <mxPoint x="384.5" y="377.5" as="targetPoint" />
          </mxGeometry>
        </mxCell>
        <mxCell id="kinTLFYI9w25P7nkgjE1-105" value="" style="endArrow=none;dashed=1;html=1;strokeWidth=2;rounded=0;fontStyle=1;" parent="1" source="kinTLFYI9w25P7nkgjE1-129" target="kinTLFYI9w25P7nkgjE1-104" edge="1">
          <mxGeometry width="50" height="50" relative="1" as="geometry">
            <mxPoint x="386" y="1272.5" as="sourcePoint" />
            <mxPoint x="387" y="422.5" as="targetPoint" />
          </mxGeometry>
        </mxCell>
        <mxCell id="kinTLFYI9w25P7nkgjE1-104" value="" style="html=1;points=[[0,0,0,0,5],[0,1,0,0,-5],[1,0,0,0,5],[1,1,0,0,-5]];perimeter=orthogonalPerimeter;outlineConnect=0;targetShapes=umlLifeline;portConstraint=eastwest;newEdgeStyle={&quot;curved&quot;:0,&quot;rounded&quot;:0};fontStyle=1" parent="1" vertex="1">
          <mxGeometry x="382" y="632.5" width="10" height="160" as="geometry" />
        </mxCell>
        <mxCell id="kinTLFYI9w25P7nkgjE1-108" value="" style="endArrow=none;dashed=1;html=1;dashPattern=1 3;strokeWidth=2;rounded=0;startArrow=openAsync;startFill=0;" parent="1" edge="1">
          <mxGeometry width="50" height="50" relative="1" as="geometry">
            <mxPoint x="392" y="706.67" as="sourcePoint" />
            <mxPoint x="622" y="706.67" as="targetPoint" />
          </mxGeometry>
        </mxCell>
        <mxCell id="kinTLFYI9w25P7nkgjE1-109" value="6. returnTestReport(testId, patientId)" style="text;html=1;align=center;verticalAlign=middle;resizable=0;points=[];autosize=1;strokeColor=none;fillColor=none;fontStyle=1" parent="1" vertex="1">
          <mxGeometry x="399" y="672.5" width="230" height="30" as="geometry" />
        </mxCell>
        <mxCell id="kinTLFYI9w25P7nkgjE1-110" style="edgeStyle=orthogonalEdgeStyle;rounded=0;orthogonalLoop=1;jettySize=auto;html=1;curved=0;exitX=1;exitY=0;exitDx=0;exitDy=5;exitPerimeter=0;entryX=0;entryY=0;entryDx=0;entryDy=5;entryPerimeter=0;" parent="1" edge="1">
          <mxGeometry relative="1" as="geometry">
            <mxPoint x="71.6" y="762.5" as="sourcePoint" />
            <mxPoint x="381.6" y="762.5" as="targetPoint" />
          </mxGeometry>
        </mxCell>
        <mxCell id="kinTLFYI9w25P7nkgjE1-111" value="8.&amp;nbsp; receiveTestResultsPatient(testId, patientId)" style="text;html=1;align=center;verticalAlign=middle;resizable=0;points=[];autosize=1;strokeColor=none;fillColor=none;fontStyle=1" parent="1" vertex="1">
          <mxGeometry x="77" y="732.5" width="280" height="30" as="geometry" />
        </mxCell>
        <mxCell id="kinTLFYI9w25P7nkgjE1-112" value="" style="endArrow=none;dashed=1;html=1;dashPattern=1 3;strokeWidth=2;rounded=0;startArrow=classicThin;startFill=1;" parent="1" edge="1">
          <mxGeometry width="50" height="50" relative="1" as="geometry">
            <mxPoint x="72" y="792.5" as="sourcePoint" />
            <mxPoint x="387" y="792.5" as="targetPoint" />
          </mxGeometry>
        </mxCell>
        <mxCell id="kinTLFYI9w25P7nkgjE1-113" value="9.&amp;nbsp; receiveTestResultsPatient(testId, patientId)" style="text;html=1;align=center;verticalAlign=middle;resizable=0;points=[];autosize=1;strokeColor=none;fillColor=none;fontStyle=1" parent="1" vertex="1">
          <mxGeometry x="77" y="762.5" width="280" height="30" as="geometry" />
        </mxCell>
        <mxCell id="kinTLFYI9w25P7nkgjE1-116" value="" style="endArrow=none;dashed=1;html=1;strokeWidth=2;rounded=0;fontStyle=1" parent="1" source="kinTLFYI9w25P7nkgjE1-117" target="kinTLFYI9w25P7nkgjE1-26" edge="1">
          <mxGeometry width="50" height="50" relative="1" as="geometry">
            <mxPoint x="626" y="1162.5" as="sourcePoint" />
            <mxPoint x="626.57" y="660" as="targetPoint" />
          </mxGeometry>
        </mxCell>
        <mxCell id="kinTLFYI9w25P7nkgjE1-117" value="" style="html=1;points=[[0,0,0,0,5],[0,1,0,0,-5],[1,0,0,0,5],[1,1,0,0,-5]];perimeter=orthogonalPerimeter;outlineConnect=0;targetShapes=umlLifeline;portConstraint=eastwest;newEdgeStyle={&quot;curved&quot;:0,&quot;rounded&quot;:0};fontStyle=1" parent="1" vertex="1">
          <mxGeometry x="622" y="940" width="10" height="240" as="geometry" />
        </mxCell>
        <mxCell id="kinTLFYI9w25P7nkgjE1-120" value="" style="endArrow=none;dashed=1;html=1;strokeWidth=2;rounded=0;fontStyle=1" parent="1" source="kinTLFYI9w25P7nkgjE1-42" target="kinTLFYI9w25P7nkgjE1-119" edge="1">
          <mxGeometry width="50" height="50" relative="1" as="geometry">
            <mxPoint x="67" y="1010" as="sourcePoint" />
            <mxPoint x="67" y="790" as="targetPoint" />
          </mxGeometry>
        </mxCell>
        <mxCell id="kinTLFYI9w25P7nkgjE1-119" value="" style="html=1;points=[[0,0,0,0,5],[0,1,0,0,-5],[1,0,0,0,5],[1,1,0,0,-5]];perimeter=orthogonalPerimeter;outlineConnect=0;targetShapes=umlLifeline;portConstraint=eastwest;newEdgeStyle={&quot;curved&quot;:0,&quot;rounded&quot;:0};fontStyle=1" parent="1" vertex="1">
          <mxGeometry x="62" y="910" width="10" height="290" as="geometry" />
        </mxCell>
        <mxCell id="kinTLFYI9w25P7nkgjE1-122" value="" style="html=1;points=[[0,0,0,0,5],[0,1,0,0,-5],[1,0,0,0,5],[1,1,0,0,-5]];perimeter=orthogonalPerimeter;outlineConnect=0;targetShapes=umlLifeline;portConstraint=eastwest;newEdgeStyle={&quot;curved&quot;:0,&quot;rounded&quot;:0};fontStyle=1" parent="1" vertex="1">
          <mxGeometry x="382" y="1010" width="10" height="190" as="geometry" />
        </mxCell>
        <mxCell id="kinTLFYI9w25P7nkgjE1-123" style="edgeStyle=orthogonalEdgeStyle;rounded=0;orthogonalLoop=1;jettySize=auto;html=1;curved=0;exitX=1;exitY=0;exitDx=0;exitDy=5;exitPerimeter=0;entryX=0;entryY=0;entryDx=0;entryDy=5;entryPerimeter=0;" parent="1" edge="1">
          <mxGeometry relative="1" as="geometry">
            <mxPoint x="72" y="1150" as="sourcePoint" />
            <mxPoint x="382" y="1150" as="targetPoint" />
          </mxGeometry>
        </mxCell>
        <mxCell id="kinTLFYI9w25P7nkgjE1-124" value="14. receiveResultsByPatient(testId, patientId)" style="text;html=1;align=center;verticalAlign=middle;resizable=0;points=[];autosize=1;strokeColor=none;fillColor=none;fontStyle=1" parent="1" vertex="1">
          <mxGeometry x="87" y="1110" width="280" height="30" as="geometry" />
        </mxCell>
        <mxCell id="kinTLFYI9w25P7nkgjE1-125" value="" style="endArrow=none;dashed=1;html=1;dashPattern=1 3;strokeWidth=2;rounded=0;startArrow=classicThin;startFill=1;" parent="1" edge="1">
          <mxGeometry width="50" height="50" relative="1" as="geometry">
            <mxPoint x="71.6" y="1190" as="sourcePoint" />
            <mxPoint x="381.6" y="1190" as="targetPoint" />
          </mxGeometry>
        </mxCell>
        <mxCell id="kinTLFYI9w25P7nkgjE1-126" value="15. receiveResultsByPatient&lt;br&gt;(testId, patientId)" style="text;html=1;align=center;verticalAlign=middle;resizable=0;points=[];autosize=1;strokeColor=none;fillColor=none;fontStyle=1" parent="1" vertex="1">
          <mxGeometry x="137" y="1150" width="180" height="40" as="geometry" />
        </mxCell>
        <mxCell id="kinTLFYI9w25P7nkgjE1-130" value="" style="endArrow=none;dashed=1;html=1;strokeWidth=2;rounded=0;fontStyle=1;" parent="1" target="kinTLFYI9w25P7nkgjE1-129" edge="1">
          <mxGeometry width="50" height="50" relative="1" as="geometry">
            <mxPoint x="385.6" y="1490" as="sourcePoint" />
            <mxPoint x="385.6" y="940" as="targetPoint" />
          </mxGeometry>
        </mxCell>
        <mxCell id="kinTLFYI9w25P7nkgjE1-129" value="" style="html=1;points=[[0,0,0,0,5],[0,1,0,0,-5],[1,0,0,0,5],[1,1,0,0,-5]];perimeter=orthogonalPerimeter;outlineConnect=0;targetShapes=umlLifeline;portConstraint=eastwest;newEdgeStyle={&quot;curved&quot;:0,&quot;rounded&quot;:0};fontStyle=1" parent="1" vertex="1">
          <mxGeometry x="381.6" y="1393.75" width="10" height="156.25" as="geometry" />
        </mxCell>
        <mxCell id="kinTLFYI9w25P7nkgjE1-133" style="edgeStyle=orthogonalEdgeStyle;rounded=0;orthogonalLoop=1;jettySize=auto;html=1;curved=0;exitX=1;exitY=0;exitDx=0;exitDy=5;exitPerimeter=0;entryX=0;entryY=0;entryDx=0;entryDy=5;entryPerimeter=0;" parent="1" edge="1">
          <mxGeometry relative="1" as="geometry">
            <mxPoint x="72" y="1510" as="sourcePoint" />
            <mxPoint x="382" y="1510" as="targetPoint" />
          </mxGeometry>
        </mxCell>
        <mxCell id="kinTLFYI9w25P7nkgjE1-134" value="20. receiveResultsByLab(testId, LabId)" style="text;html=1;align=center;verticalAlign=middle;resizable=0;points=[];autosize=1;strokeColor=none;fillColor=none;fontStyle=1" parent="1" vertex="1">
          <mxGeometry x="87" y="1480" width="240" height="30" as="geometry" />
        </mxCell>
        <mxCell id="kinTLFYI9w25P7nkgjE1-135" value="" style="endArrow=none;dashed=1;html=1;strokeWidth=2;rounded=0;fontStyle=1" parent="1" target="kinTLFYI9w25P7nkgjE1-42" edge="1">
          <mxGeometry width="50" height="50" relative="1" as="geometry">
            <mxPoint x="66.6" y="1540" as="sourcePoint" />
            <mxPoint x="66.6" y="1480" as="targetPoint" />
          </mxGeometry>
        </mxCell>
        <mxCell id="kinTLFYI9w25P7nkgjE1-136" value="" style="endArrow=none;dashed=1;html=1;dashPattern=1 3;strokeWidth=2;rounded=0;startArrow=classicThin;startFill=1;" parent="1" edge="1">
          <mxGeometry width="50" height="50" relative="1" as="geometry">
            <mxPoint x="71.6" y="1540" as="sourcePoint" />
            <mxPoint x="381.6" y="1540" as="targetPoint" />
          </mxGeometry>
        </mxCell>
        <mxCell id="kinTLFYI9w25P7nkgjE1-137" value="21. receiveResultsByLab(testId,LabId)" style="text;html=1;align=center;verticalAlign=middle;resizable=0;points=[];autosize=1;strokeColor=none;fillColor=none;fontStyle=1" parent="1" vertex="1">
          <mxGeometry x="106.6" y="1510" width="240" height="30" as="geometry" />
        </mxCell>
        <mxCell id="HCBshFpPwsW8tZtwfmP2-1" value="&lt;b&gt;Alt&lt;/b&gt;" style="shape=umlFrame;whiteSpace=wrap;html=1;pointerEvents=0;" parent="1" vertex="1">
          <mxGeometry x="-108.4" y="240" width="550" height="190" as="geometry" />
        </mxCell>
        <mxCell id="HCBshFpPwsW8tZtwfmP2-2" value="" style="endArrow=none;dashed=1;html=1;rounded=0;entryX=0.998;entryY=0.479;entryDx=0;entryDy=0;entryPerimeter=0;exitX=0;exitY=0.486;exitDx=0;exitDy=0;exitPerimeter=0;" parent="1" source="HCBshFpPwsW8tZtwfmP2-1" target="HCBshFpPwsW8tZtwfmP2-1" edge="1">
          <mxGeometry width="50" height="50" relative="1" as="geometry">
            <mxPoint x="70" y="360" as="sourcePoint" />
            <mxPoint x="120" y="310" as="targetPoint" />
          </mxGeometry>
        </mxCell>
        <mxCell id="HCBshFpPwsW8tZtwfmP2-3" value="&lt;b&gt;else: report does not exist&lt;/b&gt;" style="text;html=1;align=center;verticalAlign=middle;resizable=0;points=[];autosize=1;strokeColor=none;fillColor=none;" parent="1" vertex="1">
          <mxGeometry x="-105" y="360" width="170" height="30" as="geometry" />
        </mxCell>
        <mxCell id="HCBshFpPwsW8tZtwfmP2-4" value="&lt;b&gt;if: has report&lt;/b&gt;" style="text;html=1;align=center;verticalAlign=middle;resizable=0;points=[];autosize=1;strokeColor=none;fillColor=none;" parent="1" vertex="1">
          <mxGeometry x="-55" y="260" width="100" height="30" as="geometry" />
        </mxCell>
        <mxCell id="HCBshFpPwsW8tZtwfmP2-5" value="&lt;b&gt;Alt&lt;/b&gt;" style="shape=umlFrame;whiteSpace=wrap;html=1;pointerEvents=0;" parent="1" vertex="1">
          <mxGeometry x="-108" y="572.5" width="780" height="230" as="geometry" />
        </mxCell>
        <mxCell id="HCBshFpPwsW8tZtwfmP2-6" value="" style="endArrow=none;dashed=1;html=1;rounded=0;entryX=1.003;entryY=0.35;entryDx=0;entryDy=0;entryPerimeter=0;exitX=0;exitY=0.486;exitDx=0;exitDy=0;exitPerimeter=0;" parent="1" edge="1">
          <mxGeometry width="50" height="50" relative="1" as="geometry">
            <mxPoint x="-108" y="664.63" as="sourcePoint" />
            <mxPoint x="674.3400000000001" y="662.5049999999998" as="targetPoint" />
          </mxGeometry>
        </mxCell>
        <mxCell id="HCBshFpPwsW8tZtwfmP2-7" value="&lt;b&gt;if: test is not done&lt;/b&gt;" style="text;html=1;align=center;verticalAlign=middle;resizable=0;points=[];autosize=1;strokeColor=none;fillColor=none;" parent="1" vertex="1">
          <mxGeometry x="-78" y="612.5" width="120" height="30" as="geometry" />
        </mxCell>
        <mxCell id="HCBshFpPwsW8tZtwfmP2-8" value="&lt;b&gt;else: test is done&lt;/b&gt;" style="text;html=1;align=center;verticalAlign=middle;resizable=0;points=[];autosize=1;strokeColor=none;fillColor=none;" parent="1" vertex="1">
          <mxGeometry x="-78" y="682.5" width="120" height="30" as="geometry" />
        </mxCell>
        <mxCell id="HCBshFpPwsW8tZtwfmP2-9" value="&lt;b&gt;Alt&lt;/b&gt;" style="shape=umlFrame;whiteSpace=wrap;html=1;pointerEvents=0;" parent="1" vertex="1">
          <mxGeometry x="-108" y="930" width="780" height="276.25" as="geometry" />
        </mxCell>
        <mxCell id="HCBshFpPwsW8tZtwfmP2-10" value="" style="endArrow=none;dashed=1;html=1;rounded=0;entryX=1.003;entryY=0.35;entryDx=0;entryDy=0;entryPerimeter=0;exitX=0;exitY=0.486;exitDx=0;exitDy=0;exitPerimeter=0;" parent="1" edge="1">
          <mxGeometry width="50" height="50" relative="1" as="geometry">
            <mxPoint x="-110" y="1022" as="sourcePoint" />
            <mxPoint x="672" y="1020" as="targetPoint" />
          </mxGeometry>
        </mxCell>
        <mxCell id="HCBshFpPwsW8tZtwfmP2-11" value="&lt;b&gt;if: procedure is not done&lt;/b&gt;" style="text;html=1;align=center;verticalAlign=middle;resizable=0;points=[];autosize=1;strokeColor=none;fillColor=none;" parent="1" vertex="1">
          <mxGeometry x="-88" y="990" width="160" height="30" as="geometry" />
        </mxCell>
        <mxCell id="HCBshFpPwsW8tZtwfmP2-12" value="&lt;b&gt;else: procedure is done&lt;/b&gt;" style="text;html=1;align=center;verticalAlign=middle;resizable=0;points=[];autosize=1;strokeColor=none;fillColor=none;" parent="1" vertex="1">
          <mxGeometry x="-103" y="1080" width="160" height="30" as="geometry" />
        </mxCell>
        <mxCell id="HCBshFpPwsW8tZtwfmP2-13" value="&lt;b&gt;Alt&lt;/b&gt;" style="shape=umlFrame;whiteSpace=wrap;html=1;pointerEvents=0;" parent="1" vertex="1">
          <mxGeometry x="-108.4" y="1323.75" width="1070" height="236.25" as="geometry" />
        </mxCell>
        <mxCell id="HCBshFpPwsW8tZtwfmP2-14" value="" style="endArrow=none;dashed=1;html=1;rounded=0;entryX=1.003;entryY=0.341;entryDx=0;entryDy=0;entryPerimeter=0;exitX=0;exitY=0.486;exitDx=0;exitDy=0;exitPerimeter=0;" parent="1" edge="1">
          <mxGeometry width="50" height="50" relative="1" as="geometry">
            <mxPoint x="-110" y="1403.75" as="sourcePoint" />
            <mxPoint x="963.2099999999996" y="1406.5212500000002" as="targetPoint" />
          </mxGeometry>
        </mxCell>
        <mxCell id="HCBshFpPwsW8tZtwfmP2-15" value="&lt;b&gt;if: lab work uncomplete&lt;/b&gt;" style="text;html=1;align=center;verticalAlign=middle;resizable=0;points=[];autosize=1;strokeColor=none;fillColor=none;" parent="1" vertex="1">
          <mxGeometry x="-98.4" y="1363.75" width="160" height="30" as="geometry" />
        </mxCell>
        <mxCell id="HCBshFpPwsW8tZtwfmP2-16" value="&lt;b&gt;else: lab work completed&lt;/b&gt;" style="text;html=1;align=center;verticalAlign=middle;resizable=0;points=[];autosize=1;strokeColor=none;fillColor=none;" parent="1" vertex="1">
          <mxGeometry x="-98.4" y="1409" width="170" height="30" as="geometry" />
        </mxCell>
        <mxCell id="HCBshFpPwsW8tZtwfmP2-17" value="" style="html=1;points=[[0,0,0,0,5],[0,1,0,0,-5],[1,0,0,0,5],[1,1,0,0,-5]];perimeter=orthogonalPerimeter;outlineConnect=0;targetShapes=umlLifeline;portConstraint=eastwest;newEdgeStyle={&quot;curved&quot;:0,&quot;rounded&quot;:0};fontStyle=1" parent="1" vertex="1">
          <mxGeometry x="382" y="520" width="10" height="102.5" as="geometry" />
        </mxCell>
        <mxCell id="HCBshFpPwsW8tZtwfmP2-18" style="edgeStyle=orthogonalEdgeStyle;rounded=0;orthogonalLoop=1;jettySize=auto;html=1;curved=0;" parent="1" edge="1">
          <mxGeometry relative="1" as="geometry">
            <mxPoint x="392" y="612.5" as="sourcePoint" />
            <mxPoint x="622" y="612.5" as="targetPoint" />
            <Array as="points">
              <mxPoint x="562" y="612.5" />
              <mxPoint x="562" y="612.5" />
            </Array>
          </mxGeometry>
        </mxCell>
        <mxCell id="HCBshFpPwsW8tZtwfmP2-19" value="5. orderDiagnosticTest(doctorId, &lt;br&gt;patientId)" style="text;html=1;align=center;verticalAlign=middle;resizable=0;points=[];autosize=1;strokeColor=none;fillColor=none;fontStyle=1" parent="1" vertex="1">
          <mxGeometry x="402" y="572.5" width="210" height="40" as="geometry" />
        </mxCell>
        <mxCell id="HCBshFpPwsW8tZtwfmP2-20" value="" style="html=1;points=[[0,0,0,0,5],[0,1,0,0,-5],[1,0,0,0,5],[1,1,0,0,-5]];perimeter=orthogonalPerimeter;outlineConnect=0;targetShapes=umlLifeline;portConstraint=eastwest;newEdgeStyle={&quot;curved&quot;:0,&quot;rounded&quot;:0};fontStyle=1" parent="1" vertex="1">
          <mxGeometry x="382" y="900" width="10" height="80" as="geometry" />
        </mxCell>
        <mxCell id="HCBshFpPwsW8tZtwfmP2-21" style="edgeStyle=orthogonalEdgeStyle;rounded=0;orthogonalLoop=1;jettySize=auto;html=1;curved=0;" parent="1" edge="1">
          <mxGeometry relative="1" as="geometry">
            <mxPoint x="391.97" y="970" as="sourcePoint" />
            <mxPoint x="621.97" y="970" as="targetPoint" />
            <Array as="points">
              <mxPoint x="391.97" y="971" />
              <mxPoint x="621.97" y="971" />
            </Array>
          </mxGeometry>
        </mxCell>
        <mxCell id="HCBshFpPwsW8tZtwfmP2-22" value="11. orderMedicalProcedure(doctorId, &lt;br&gt;patientId)" style="text;html=1;align=center;verticalAlign=middle;resizable=0;points=[];autosize=1;strokeColor=none;fillColor=none;fontStyle=1" parent="1" vertex="1">
          <mxGeometry x="389" y="930" width="230" height="40" as="geometry" />
        </mxCell>
        <mxCell id="HCBshFpPwsW8tZtwfmP2-23" style="edgeStyle=orthogonalEdgeStyle;rounded=0;orthogonalLoop=1;jettySize=auto;html=1;curved=0;exitX=1;exitY=0;exitDx=0;exitDy=5;exitPerimeter=0;" parent="1" edge="1">
          <mxGeometry relative="1" as="geometry">
            <mxPoint x="66.6" y="1310" as="sourcePoint" />
            <mxPoint x="381.5999999999999" y="1310.032258064516" as="targetPoint" />
            <Array as="points">
              <mxPoint x="301.6" y="1310" />
              <mxPoint x="301.6" y="1310" />
            </Array>
          </mxGeometry>
        </mxCell>
        <mxCell id="HCBshFpPwsW8tZtwfmP2-24" value="" style="html=1;points=[[0,0,0,0,5],[0,1,0,0,-5],[1,0,0,0,5],[1,1,0,0,-5]];perimeter=orthogonalPerimeter;outlineConnect=0;targetShapes=umlLifeline;portConstraint=eastwest;newEdgeStyle={&quot;curved&quot;:0,&quot;rounded&quot;:0};fontStyle=1" parent="1" vertex="1">
          <mxGeometry x="381.6" y="1280" width="10" height="83.75" as="geometry" />
        </mxCell>
        <mxCell id="HCBshFpPwsW8tZtwfmP2-25" style="edgeStyle=orthogonalEdgeStyle;rounded=0;orthogonalLoop=1;jettySize=auto;html=1;curved=0;exitX=1;exitY=0;exitDx=0;exitDy=5;exitPerimeter=0;" parent="1" edge="1">
          <mxGeometry relative="1" as="geometry">
            <mxPoint x="391.6" y="1349.55" as="sourcePoint" />
            <mxPoint x="926.6" y="1349.5727272727272" as="targetPoint" />
            <Array as="points">
              <mxPoint x="791.6" y="1349.55" />
              <mxPoint x="791.6" y="1349.55" />
            </Array>
          </mxGeometry>
        </mxCell>
        <mxCell id="HCBshFpPwsW8tZtwfmP2-26" value="17. orderLabwork(doctorId, workInfo, labId)" style="text;html=1;align=center;verticalAlign=middle;resizable=0;points=[];autosize=1;strokeColor=none;fillColor=none;fontStyle=1" parent="1" vertex="1">
          <mxGeometry x="491.6" y="1323.75" width="270" height="30" as="geometry" />
        </mxCell>
        <mxCell id="65Xa88YC8P0EwLyLaAAt-1" value="" style="endArrow=none;dashed=1;html=1;strokeWidth=2;rounded=0;fontStyle=1" parent="1" target="kinTLFYI9w25P7nkgjE1-117" edge="1">
          <mxGeometry width="50" height="50" relative="1" as="geometry">
            <mxPoint x="627" y="1200" as="sourcePoint" />
            <mxPoint x="627" y="1190" as="targetPoint" />
          </mxGeometry>
        </mxCell>
        <mxCell id="kgI6K1F_V7r2fEF3bkK0-1" value="" style="endArrow=none;dashed=1;html=1;rounded=0;exitX=0;exitY=0.233;exitDx=0;exitDy=0;exitPerimeter=0;entryX=0.998;entryY=0.232;entryDx=0;entryDy=0;entryPerimeter=0;" parent="1" edge="1">
          <mxGeometry width="50" height="50" relative="1" as="geometry">
            <mxPoint x="-160" y="501.46000000000004" as="sourcePoint" />
            <mxPoint x="1007.6600000000003" y="500" as="targetPoint" />
          </mxGeometry>
        </mxCell>
        <mxCell id="kgI6K1F_V7r2fEF3bkK0-2" value="&lt;i&gt;Order Diagnostic Test&lt;/i&gt;" style="text;html=1;align=center;verticalAlign=middle;resizable=0;points=[];autosize=1;strokeColor=none;fillColor=none;fontStyle=1" parent="1" vertex="1">
          <mxGeometry x="-128" y="470" width="150" height="30" as="geometry" />
        </mxCell>
        <mxCell id="kgI6K1F_V7r2fEF3bkK0-3" value="" style="endArrow=none;dashed=1;html=1;rounded=0;exitX=0;exitY=0.5;exitDx=0;exitDy=0;exitPerimeter=0;entryX=1;entryY=0.5;entryDx=0;entryDy=0;entryPerimeter=0;" parent="1" edge="1">
          <mxGeometry width="50" height="50" relative="1" as="geometry">
            <mxPoint x="-160" y="878.89" as="sourcePoint" />
            <mxPoint x="1010" y="878.89" as="targetPoint" />
          </mxGeometry>
        </mxCell>
        <mxCell id="kgI6K1F_V7r2fEF3bkK0-4" value="&lt;i&gt;Order Medical Procedure&lt;/i&gt;" style="text;html=1;align=center;verticalAlign=middle;resizable=0;points=[];autosize=1;strokeColor=none;fillColor=none;fontStyle=1" parent="1" vertex="1">
          <mxGeometry x="-128" y="850" width="170" height="30" as="geometry" />
        </mxCell>
        <mxCell id="kgI6K1F_V7r2fEF3bkK0-7" value="" style="endArrow=none;dashed=1;html=1;rounded=0;exitX=-0.001;exitY=0.768;exitDx=0;exitDy=0;exitPerimeter=0;entryX=1;entryY=0.767;entryDx=0;entryDy=0;entryPerimeter=0;" parent="1" edge="1">
          <mxGeometry width="50" height="50" relative="1" as="geometry">
            <mxPoint x="-161.17000000000007" y="1261.4600000000003" as="sourcePoint" />
            <mxPoint x="1010" y="1260.0000000000002" as="targetPoint" />
          </mxGeometry>
        </mxCell>
        <mxCell id="kgI6K1F_V7r2fEF3bkK0-8" value="&lt;i&gt;Order Lab Work&lt;/i&gt;" style="text;html=1;align=center;verticalAlign=middle;resizable=0;points=[];autosize=1;strokeColor=none;fillColor=none;fontStyle=1" parent="1" vertex="1">
          <mxGeometry x="-88" y="1230" width="110" height="30" as="geometry" />
        </mxCell>
        <mxCell id="kgI6K1F_V7r2fEF3bkK0-10" value="&lt;b&gt;Alt&lt;/b&gt;" style="shape=umlFrame;whiteSpace=wrap;html=1;pointerEvents=0;" parent="1" vertex="1">
          <mxGeometry x="-160" y="130" width="1170" height="1460" as="geometry" />
        </mxCell>
        <mxCell id="kgI6K1F_V7r2fEF3bkK0-11" value="" style="endArrow=none;dashed=1;html=1;rounded=0;exitX=0;exitY=0.233;exitDx=0;exitDy=0;exitPerimeter=0;entryX=0.998;entryY=0.232;entryDx=0;entryDy=0;entryPerimeter=0;" parent="1" edge="1">
          <mxGeometry width="50" height="50" relative="1" as="geometry">
            <mxPoint x="-158.83" y="191.46000000000004" as="sourcePoint" />
            <mxPoint x="1008.8300000000003" y="190" as="targetPoint" />
          </mxGeometry>
        </mxCell>
        <mxCell id="kgI6K1F_V7r2fEF3bkK0-15" value="&lt;i&gt;View Reports&lt;/i&gt;" style="text;html=1;align=center;verticalAlign=middle;resizable=0;points=[];autosize=1;strokeColor=none;fillColor=none;fontStyle=1" parent="1" vertex="1">
          <mxGeometry x="-75" y="160" width="100" height="30" as="geometry" />
        </mxCell>
        <mxCell id="fluLHSS-ZsZkKGzsursd-1" value="" style="endArrow=none;dashed=1;html=1;dashPattern=1 3;strokeWidth=2;rounded=0;startArrow=openAsync;startFill=0;" edge="1" parent="1" source="kinTLFYI9w25P7nkgjE1-18">
          <mxGeometry width="50" height="50" relative="1" as="geometry">
            <mxPoint x="157" y="716.67" as="sourcePoint" />
            <mxPoint x="387" y="716.67" as="targetPoint" />
          </mxGeometry>
        </mxCell>
        <mxCell id="fluLHSS-ZsZkKGzsursd-2" value="7. notifyExistsResults(testId)" style="text;html=1;align=center;verticalAlign=middle;resizable=0;points=[];autosize=1;strokeColor=none;fillColor=none;fontStyle=1" vertex="1" parent="1">
          <mxGeometry x="152" y="682.5" width="190" height="30" as="geometry" />
        </mxCell>
        <mxCell id="fluLHSS-ZsZkKGzsursd-4" value="" style="endArrow=none;dashed=1;html=1;dashPattern=1 3;strokeWidth=2;rounded=0;startArrow=openAsync;startFill=0;" edge="1" parent="1" source="kinTLFYI9w25P7nkgjE1-119">
          <mxGeometry width="50" height="50" relative="1" as="geometry">
            <mxPoint x="142" y="1094.57" as="sourcePoint" />
            <mxPoint x="382" y="1094.57" as="targetPoint" />
          </mxGeometry>
        </mxCell>
        <mxCell id="fluLHSS-ZsZkKGzsursd-6" value="13. notifyExistsResults(testId)" style="text;html=1;align=center;verticalAlign=middle;resizable=0;points=[];autosize=1;strokeColor=none;fillColor=none;fontStyle=1" vertex="1" parent="1">
          <mxGeometry x="122" y="1060" width="190" height="30" as="geometry" />
        </mxCell>
        <mxCell id="fluLHSS-ZsZkKGzsursd-7" value="" style="endArrow=none;dashed=1;html=1;dashPattern=1 3;strokeWidth=2;rounded=0;startArrow=openAsync;startFill=0;" edge="1" parent="1" source="kinTLFYI9w25P7nkgjE1-42">
          <mxGeometry width="50" height="50" relative="1" as="geometry">
            <mxPoint x="100" y="1460" as="sourcePoint" />
            <mxPoint x="382" y="1460" as="targetPoint" />
          </mxGeometry>
        </mxCell>
        <mxCell id="fluLHSS-ZsZkKGzsursd-8" value="19. notifyExistsResults(testId)" style="text;html=1;align=center;verticalAlign=middle;resizable=0;points=[];autosize=1;strokeColor=none;fillColor=none;fontStyle=1" vertex="1" parent="1">
          <mxGeometry x="131.6" y="1426.88" width="190" height="30" as="geometry" />
        </mxCell>
      </root>
    </mxGraphModel>
  </diagram>
</mxfile>
